# xmcd CD database file
#
# Track frame offsets:
#	150
#	22242
#	40387
#	71845
#	87797
#	127420
#
# Disc length: 1963 seconds
#
# Revision: 4
# Processed by: cddbd v1.5.1PL0 Copyright (c) Steve Scherf et al.
# Submitted via: CDex 1.51
#
DISCID=5907a906
DTITLE=Macy Gray - Limited Edition
DYEAR=2000
DGENRE=R&B
TTITLE0=I Try (Grand Style Mix)
TTITLE1=I've Committed Murder (Gang Starr Remix - Main Street Mix)
TTITLE2=Still (Attica Blues Mix)
TTITLE3=Why Didn't You Call Me (Live At Wembley Arena)
TTITLE4=Do Something (Sylk 130 Remix)
TTITLE5=I Try (From The Jo Whiley Radio 1 Session)
EXTD=YEAR: 2000
EXTT0=
EXTT1=
EXTT2=
EXTT3=
EXTT4=
EXTT5=
PLAYORDER=
